<svg xmlns="http://www.w3.org/2000/svg" width="253" height="255" viewBox="0 0 253 255">
<g>
<path d="M 0.00 0.00 L 253.00 0.00 L 253.00 127.50 C253.00,14.83 252.83,0.00 251.50,0.00 C250.17,0.00 250.00,14.56 250.00,125.00 L 250.00 250.00 L 0.00 250.00 ZM 118.88 164.27 C118.95,164.69 121.17,163.94 123.81,162.59 C128.94,160.00 136.00,152.99 136.00,150.50 C136.00,148.68 137.65,148.51 138.30,150.25 C138.90,151.86 141.00,146.61 141.00,143.51 C141.00,142.21 140.49,138.98 139.88,136.33 C138.90,132.11 138.25,131.26 134.77,129.62 C132.10,128.35 130.33,126.64 129.39,124.40 C127.54,119.95 127.59,116.00 129.50,116.00 C130.58,116.00 131.00,117.11 131.00,119.97 C131.00,123.55 131.39,124.16 135.00,126.22 C138.04,127.96 139.52,129.75 141.18,133.75 C142.38,136.64 143.91,139.00 144.57,139.00 C146.60,139.00 157.37,131.34 159.62,128.30 C163.74,122.73 166.02,116.97 167.06,109.55 C167.78,104.33 167.78,101.46 167.05,100.09 C166.47,99.01 166.01,95.51 166.01,92.32 C166.03,87.46 166.67,85.32 169.92,79.36 C173.40,72.97 176.00,63.23 176.00,56.56 C176.00,54.43 174.27,54.59 173.57,56.78 C172.95,58.72 166.22,66.00 165.04,66.00 C164.63,66.00 163.75,62.06 163.08,57.25 C161.02,42.48 156.28,34.43 147.11,30.13 C141.70,27.60 140.85,27.50 123.50,27.50 C106.82,27.50 105.13,27.67 100.50,29.80 C97.75,31.07 94.22,33.32 92.66,34.80 C87.23,39.95 83.00,51.42 83.00,60.99 C83.00,63.13 82.59,65.14 82.08,65.45 C80.87,66.20 75.81,61.87 74.05,58.60 C71.65,54.11 70.67,55.57 71.28,62.75 C71.72,68.02 72.87,71.63 76.55,79.23 L 81.25 88.96 L 79.99 97.04 C78.47,106.81 79.13,113.42 82.31,120.37 C86.27,129.02 93.89,136.12 101.70,138.45 C103.65,139.03 104.07,138.55 105.30,134.34 C106.42,130.48 107.43,129.16 110.59,127.39 C113.83,125.59 114.66,124.47 115.42,120.86 C115.93,118.46 116.83,116.17 117.42,115.77 C119.09,114.63 127.22,114.84 126.50,116.00 C126.16,116.55 124.17,117.00 122.07,117.00 C118.37,117.00 118.25,117.11 117.71,121.10 C117.11,125.63 114.08,129.51 110.44,130.43 C108.63,130.88 107.71,132.24 106.54,136.19 C104.70,142.37 104.65,143.71 106.12,147.93 C106.90,150.14 107.57,150.83 108.28,150.12 C108.98,149.42 110.18,150.47 112.09,153.48 C113.62,155.89 115.82,158.37 116.99,158.99 C118.15,159.62 119.03,160.89 118.94,161.81 C118.84,162.74 118.82,163.85 118.88,164.27 ZM 122.95 214.75 C123.57,217.09 124.22,219.00 124.41,219.00 C124.59,219.00 125.92,217.21 127.37,215.02 C129.24,212.20 130.00,209.73 130.00,206.52 C130.00,204.03 130.45,202.00 131.00,202.00 C131.55,202.00 132.00,201.38 132.00,200.62 C132.00,199.86 132.68,198.68 133.50,198.00 C135.56,196.29 135.37,193.08 133.01,189.50 C131.92,187.85 131.25,185.80 131.52,184.94 C131.79,184.09 131.11,182.42 130.01,181.24 C128.90,180.05 128.00,178.39 128.00,177.54 C128.00,175.58 126.91,175.60 122.62,177.64 C120.39,178.71 119.37,179.79 119.72,180.71 C120.03,181.51 118.79,183.65 116.89,185.61 C114.32,188.26 113.84,189.28 114.86,189.91 C115.95,190.59 115.90,191.29 114.59,193.82 C112.90,197.10 112.60,199.80 113.64,202.50 C114.14,203.80 114.46,203.88 115.09,202.86 C115.69,201.88 116.06,202.04 116.59,203.53 C116.98,204.61 118.31,206.62 119.56,208.00 C120.81,209.38 122.33,212.41 122.95,214.75 ZM 98.78 106.44 C93.75,109.96 91.30,108.31 89.54,100.22 C88.81,96.84 90.66,83.00 91.85,83.00 C92.62,83.00 101.00,101.99 101.00,103.73 C101.00,104.37 100.00,105.59 98.78,106.44 ZM 155.07 105.32 C153.84,108.55 150.34,108.91 146.95,106.16 L 144.68 104.33 L 148.84 94.63 C151.13,89.30 153.00,84.50 153.00,83.97 C153.00,83.44 153.42,83.00 153.93,83.00 C154.44,83.00 155.39,85.56 156.04,88.69 C157.24,94.49 156.89,100.52 155.07,105.32 ZM 112.00 78.77 C110.01,82.03 108.87,82.35 103.00,81.27 C99.55,80.63 98.24,79.36 97.48,75.89 C97.12,74.25 95.88,72.03 94.72,70.96 C92.00,68.42 93.65,68.48 99.67,71.14 C102.33,72.32 106.63,73.79 109.23,74.40 L 113.96 75.53 ZM 146.75 79.78 C146.06,80.35 143.43,81.12 140.89,81.50 C136.68,82.13 136.11,81.95 134.14,79.46 C131.42,75.99 131.44,75.01 134.25,74.97 C135.49,74.95 139.88,73.60 144.00,71.97 C153.10,68.37 153.57,68.34 150.45,71.45 C149.10,72.80 148.00,75.00 148.00,76.33 C148.00,77.66 147.44,79.22 146.75,79.78 ZM 118.00 175.43 C118.00,177.39 118.97,177.39 123.73,175.49 C127.40,174.02 127.51,173.83 127.74,168.49 C127.87,165.47 127.77,163.00 127.51,163.00 C127.26,163.00 125.03,163.98 122.56,165.18 C119.18,166.83 118.32,167.68 119.10,168.62 C119.82,169.49 119.81,170.49 119.07,171.87 C118.48,172.97 118.00,174.57 118.00,175.43 ZM 129.73 95.33 C129.52,95.98 128.14,96.64 126.67,96.82 C124.16,97.11 124.00,96.89 124.00,93.01 C124.00,90.51 124.40,89.13 125.00,89.50 C125.55,89.84 126.00,90.74 126.00,91.49 C126.00,92.25 126.92,93.16 128.06,93.52 C129.19,93.88 129.94,94.69 129.73,95.33 ZM 121.81 93.25 C121.58,95.65 120.98,96.55 119.50,96.69 C115.35,97.08 114.91,95.89 118.09,92.91 C119.81,91.31 121.42,90.00 121.67,90.00 C121.92,90.00 121.99,91.46 121.81,93.25 Z" fill="rgb(40,40,40)"/>
<path d="M 0.00 252.50 L 0.00 250.00 L 125.00 250.00 L 250.00 250.00 L 250.00 125.00 C250.00,14.56 250.17,0.00 251.50,0.00 C252.83,0.00 253.00,14.83 253.00,127.50 L 253.00 255.00 L 126.50 255.00 L 0.00 255.00 L 0.00 252.50 ZM 122.95 214.75 C122.33,212.41 120.81,209.38 119.56,208.00 C118.31,206.62 116.98,204.61 116.59,203.53 C116.06,202.04 115.69,201.88 115.09,202.86 C114.46,203.88 114.14,203.80 113.64,202.50 C112.60,199.80 112.90,197.10 114.59,193.82 C115.90,191.29 115.95,190.59 114.86,189.91 C113.84,189.28 114.32,188.26 116.89,185.61 C118.79,183.65 120.03,181.51 119.72,180.71 C119.37,179.79 120.39,178.71 122.62,177.64 C126.91,175.60 128.00,175.58 128.00,177.54 C128.00,178.39 128.90,180.05 130.01,181.24 C131.11,182.42 131.79,184.09 131.52,184.94 C131.25,185.80 131.92,187.85 133.01,189.50 C135.37,193.08 135.56,196.29 133.50,198.00 C132.68,198.68 132.00,199.86 132.00,200.62 C132.00,201.38 131.55,202.00 131.00,202.00 C130.45,202.00 130.00,204.03 130.00,206.52 C130.00,209.73 129.24,212.20 127.37,215.02 C125.92,217.21 124.59,219.00 124.41,219.00 C124.22,219.00 123.57,217.09 122.95,214.75 ZM 118.00 175.43 C118.00,174.57 118.48,172.97 119.07,171.87 C119.81,170.49 119.82,169.49 119.10,168.62 C118.32,167.68 119.18,166.83 122.56,165.18 C125.03,163.98 127.26,163.00 127.51,163.00 C127.77,163.00 127.87,165.47 127.74,168.49 C127.51,173.83 127.40,174.02 123.73,175.49 C118.97,177.39 118.00,177.39 118.00,175.43 ZM 118.88 164.27 C118.82,163.85 118.84,162.74 118.94,161.81 C119.03,160.89 118.15,159.62 116.99,158.99 C115.82,158.37 113.62,155.89 112.09,153.48 C110.18,150.47 108.98,149.42 108.28,150.12 C107.57,150.83 106.90,150.14 106.12,147.93 C104.65,143.71 104.70,142.37 106.54,136.19 C107.71,132.24 108.63,130.88 110.44,130.43 C114.08,129.51 117.11,125.63 117.71,121.10 C118.25,117.11 118.37,117.00 122.07,117.00 C124.17,117.00 126.16,116.55 126.50,116.00 C127.22,114.84 119.09,114.63 117.42,115.77 C116.83,116.17 115.93,118.46 115.42,120.86 C114.66,124.47 113.83,125.59 110.59,127.39 C107.43,129.16 106.42,130.48 105.30,134.34 C104.07,138.55 103.65,139.03 101.70,138.45 C93.89,136.12 86.27,129.02 82.31,120.37 C79.13,113.42 78.47,106.81 79.99,97.04 L 81.25 88.96 L 76.55 79.23 C72.87,71.63 71.72,68.02 71.28,62.75 C70.67,55.57 71.65,54.11 74.05,58.60 C75.81,61.87 80.87,66.20 82.08,65.45 C82.59,65.14 83.00,63.13 83.00,60.99 C83.00,51.42 87.23,39.95 92.66,34.80 C94.22,33.32 97.75,31.07 100.50,29.80 C105.13,27.67 106.82,27.50 123.50,27.50 C140.85,27.50 141.70,27.60 147.11,30.13 C156.28,34.43 161.02,42.48 163.08,57.25 C163.75,62.06 164.63,66.00 165.04,66.00 C166.22,66.00 172.95,58.72 173.57,56.78 C174.27,54.59 176.00,54.43 176.00,56.56 C176.00,63.23 173.40,72.97 169.92,79.36 C166.67,85.32 166.03,87.46 166.01,92.32 C166.01,95.51 166.47,99.01 167.05,100.09 C167.78,101.46 167.78,104.33 167.06,109.55 C166.02,116.97 163.74,122.73 159.62,128.30 C157.37,131.34 146.60,139.00 144.57,139.00 C143.91,139.00 142.38,136.64 141.18,133.75 C139.52,129.75 138.04,127.96 135.00,126.22 C131.39,124.16 131.00,123.55 131.00,119.97 C131.00,117.11 130.58,116.00 129.50,116.00 C127.59,116.00 127.54,119.95 129.39,124.40 C130.33,126.64 132.10,128.35 134.77,129.62 C138.25,131.26 138.90,132.11 139.88,136.33 C140.49,138.98 141.00,142.21 141.00,143.51 C141.00,146.61 138.90,151.86 138.30,150.25 C137.65,148.51 136.00,148.68 136.00,150.50 C136.00,152.99 128.94,160.00 123.81,162.59 C121.17,163.94 118.95,164.69 118.88,164.27 ZM 98.78 106.44 C100.00,105.59 101.00,104.37 101.00,103.73 C101.00,101.99 92.62,83.00 91.85,83.00 C90.66,83.00 88.81,96.84 89.54,100.22 C91.30,108.31 93.75,109.96 98.78,106.44 ZM 155.07 105.32 C156.89,100.52 157.24,94.49 156.04,88.69 C155.39,85.56 154.44,83.00 153.93,83.00 C153.42,83.00 153.00,83.44 153.00,83.97 C153.00,84.50 151.13,89.30 148.84,94.63 L 144.68 104.33 L 146.95 106.16 C150.34,108.91 153.84,108.55 155.07,105.32 ZM 121.81 93.25 C121.99,91.46 121.92,90.00 121.67,90.00 C121.42,90.00 119.81,91.31 118.09,92.91 C114.91,95.89 115.35,97.08 119.50,96.69 C120.98,96.55 121.58,95.65 121.81,93.25 ZM 129.73 95.33 C129.94,94.69 129.19,93.88 128.06,93.52 C126.92,93.16 126.00,92.25 126.00,91.49 C126.00,90.74 125.55,89.84 125.00,89.50 C124.40,89.13 124.00,90.51 124.00,93.01 C124.00,96.89 124.16,97.11 126.67,96.82 C128.14,96.64 129.52,95.98 129.73,95.33 ZM 112.00 78.77 L 113.96 75.53 L 109.23 74.40 C106.63,73.79 102.33,72.32 99.67,71.14 C93.65,68.48 92.00,68.42 94.72,70.96 C95.88,72.03 97.12,74.25 97.48,75.89 C98.24,79.36 99.55,80.63 103.00,81.27 C108.87,82.35 110.01,82.03 112.00,78.77 ZM 146.75 79.78 C147.44,79.22 148.00,77.66 148.00,76.33 C148.00,75.00 149.10,72.80 150.45,71.45 C153.57,68.34 153.10,68.37 144.00,71.97 C139.88,73.60 135.49,74.95 134.25,74.97 C131.44,75.01 131.42,75.99 134.14,79.46 C136.11,81.95 136.68,82.13 140.89,81.50 C143.43,81.12 146.06,80.35 146.75,79.78 Z" fill="rgb(253,253,253)"/>
</g>
</svg>